<svg width="16" height="24" viewBox="0 0 16 24" fill="none" xmlns="http://www.w3.org/2000/svg">
<path fill-rule="evenodd" clip-rule="evenodd" d="M12.292 0.100275C12.4294 0.183404 12.5358 0.312702 12.5937 0.467049C12.6516 0.621395 12.6577 0.791665 12.6108 0.950043L10.0811 9.52391H14.7486C14.8858 9.52385 15.02 9.56569 15.1346 9.64427C15.2492 9.72284 15.3393 9.83471 15.3937 9.96607C15.448 10.0974 15.4643 10.2425 15.4406 10.3834C15.4168 10.5243 15.354 10.6549 15.2599 10.759L4.02306 23.2125C3.91434 23.3331 3.76966 23.4117 3.6126 23.4356C3.45555 23.4594 3.29538 23.4271 3.15821 23.3438C3.02104 23.2605 2.91495 23.1313 2.85723 22.977C2.79952 22.8228 2.79358 22.6528 2.84039 22.4946L5.37008 13.9193H0.702582C0.565415 13.9193 0.431235 13.8775 0.316605 13.7989C0.201975 13.7203 0.111914 13.6084 0.057539 13.4771C0.00316399 13.3457 -0.0131442 13.2007 0.0106275 13.0597C0.0343991 12.9188 0.0972098 12.7883 0.191306 12.6842L11.4281 0.230671C11.5367 0.110237 11.6812 0.0316617 11.838 0.00772159C11.9949 -0.0162185 12.1548 0.0158842 12.292 0.09881V0.100275Z" fill="#F16CE5"/>
</svg>
