<?xml version="1.0" encoding="UTF-8" standalone="no"?><!DOCTYPE svg PUBLIC "-//W3C//DTD SVG 1.1//EN" "http://www.w3.org/Graphics/SVG/1.1/DTD/svg11.dtd"><svg width="100%" height="100%" viewBox="0 0 117 84" version="1.1" xmlns="http://www.w3.org/2000/svg" xmlns:xlink="http://www.w3.org/1999/xlink" xml:space="preserve" xmlns:serif="http://www.serif.com/" style="fill-rule:evenodd;clip-rule:evenodd;stroke-linejoin:round;stroke-miterlimit:2;"><g id="Group-85" serif:id="Group 85"><path id="Vector" d="M116.662,42.272c-0.321,21.146 -17.285,38.607 -38.5,39.448c-4.251,0.16 -8.382,-0.321 -12.272,-1.402c-1.043,-0.28 -1.243,-1.722 -0.241,-2.243c13.154,-6.688 20.751,-20.367 20.751,-36.306c0,-15.939 -7.636,-29.814 -20.751,-36.502c-0.963,-0.481 -0.802,-1.922 0.241,-2.243c3.409,-0.921 6.979,-1.442 10.628,-1.442c22.379,0.04 40.466,18.302 40.145,40.689Z" style="fill:#199cff;fill-rule:nonzero;"/><path id="Vector_2" d="M40.105,1.623c-22.138,0 -40.105,17.942 -40.105,40.049c0,22.107 17.967,40.048 40.105,40.048c22.138,0 40.105,-17.941 40.105,-40.048c0,-22.107 -17.967,-40.049 -40.105,-40.049Zm13.956,15.779l-9.264,19.103c-0.441,0.881 0.321,1.842 1.283,1.722l3.088,-0.481c1.083,-0.16 1.805,1.041 1.163,1.922l-21.295,28.434c-0.842,1.121 -2.567,0.16 -2.085,-1.161l6.978,-18.582c0.361,-0.921 -0.481,-1.842 -1.444,-1.602l-3.088,0.801c-0.882,0.241 -1.724,-0.601 -1.444,-1.482l8.382,-29.516c0.16,-0.521 0.602,-0.881 1.163,-0.881l15.52,0c0.842,0 1.444,0.921 1.043,1.722Z" style="fill:#199cff;fill-rule:nonzero;"/></g></svg>