<svg xmlns="http://www.w3.org/2000/svg" viewBox="0 0 271.57 271.57"><defs><style>.cls-1{fill:#199cff;}.cls-2{fill:#1f1f1f;}</style></defs><g id="Square_light"><path class="cls-1" d="M128.09,25.72h57.34a1.44,1.44,0,0,1,1.3,2.06l-41,86.84a1.45,1.45,0,0,0,1.53,2l27.63-4.27a1.45,1.45,0,0,1,1.41,2.25L85.72,245.47a1.44,1.44,0,0,1-2.54-1.33l38.71-103.26a1.44,1.44,0,0,0-1.71-1.9l-24.87,6.55a1.45,1.45,0,0,1-1.76-1.79l33.15-117A1.46,1.46,0,0,1,128.09,25.72Z"/><path class="cls-2" d="M199.68,152.85l-7.37,10.93a1.43,1.43,0,0,1-2,.39A29.88,29.88,0,0,0,173,158.48c-12.49.17-24.59,8.21-25.15,23.26v.16c.56,15,12.66,23.09,25.15,23.26a29.83,29.83,0,0,0,17.3-5.69,1.44,1.44,0,0,1,2,.39l7.37,10.93a1.43,1.43,0,0,1-.3,1.94A42.89,42.89,0,0,1,173,221.59c-24.36,0-41.56-18.2-41.56-39.77s17.2-39.77,41.56-39.77a42.89,42.89,0,0,1,26.41,8.86A1.43,1.43,0,0,1,199.68,152.85Z"/><path class="cls-2" d="M124.86,156.9V143.61a1.44,1.44,0,0,0-1.44-1.44l-52.28-.08h0v79.45h0l52.27,0a1.44,1.44,0,0,0,1.44-1.44v-13a1.44,1.44,0,0,0-1.44-1.44H90.78a1.44,1.44,0,0,1-1.44-1.45v-14.1a1.44,1.44,0,0,1,1.44-1.44H122.1a1.44,1.44,0,0,0,1.45-1.44V175.48A1.45,1.45,0,0,0,122.1,174H90.78a1.44,1.44,0,0,1-1.44-1.44V159.78a1.44,1.44,0,0,1,1.44-1.44h32.64A1.45,1.45,0,0,0,124.86,156.9Z"/><path class="cls-2" d="M192.78,64.8V51.51a1.44,1.44,0,0,0-1.44-1.44L139.07,50v79.44l52.27,0a1.44,1.44,0,0,0,1.44-1.45V115a1.44,1.44,0,0,0-1.44-1.45H158.7a1.44,1.44,0,0,1-1.44-1.44V98a1.44,1.44,0,0,1,1.44-1.44H190a1.45,1.45,0,0,0,1.45-1.45V83.39A1.44,1.44,0,0,0,190,82H158.7a1.45,1.45,0,0,1-1.44-1.45V67.69a1.44,1.44,0,0,1,1.44-1.44h32.64A1.44,1.44,0,0,0,192.78,64.8Z"/><path class="cls-2" d="M121.59,50h-15a1.44,1.44,0,0,0-1.44,1.44L105,102.75c0,5.14-.08,12.18-7.76,12.18s-8.33-7-8.33-11.79H74.42A1.44,1.44,0,0,0,73,104.55c-.06,14,6.46,24.91,25.17,24.91,19.76,0,24.86-15.93,24.86-26.09l0-51.94A1.44,1.44,0,0,0,121.59,50Z"/></g></svg>